<mxfile host="65bd71144e">
    <diagram id="C2Y4lzThZQWTt-aDFqae" name="第 1 页">
        <mxGraphModel dx="884" dy="453" grid="1" gridSize="10" guides="1" tooltips="1" connect="1" arrows="1" fold="1" page="1" pageScale="1" pageWidth="827" pageHeight="1169" math="0" shadow="0">
            <root>
                <mxCell id="0"/>
                <mxCell id="1" parent="0"/>
                <mxCell id="2" value="&lt;div style=&quot;color: rgb(212 , 212 , 212) ; font-family: &amp;#34;menlo&amp;#34; , &amp;#34;monaco&amp;#34; , &amp;#34;courier new&amp;#34; , monospace ; line-height: 18px&quot;&gt;&lt;div&gt;&lt;span style=&quot;color: rgb(86 , 156 , 214)&quot;&gt;typedef&lt;/span&gt; &lt;span style=&quot;color: rgb(86 , 156 , 214)&quot;&gt;struct&lt;/span&gt; {&lt;/div&gt;&lt;div&gt;    &lt;span style=&quot;color: #569cd6&quot;&gt;&amp;nbsp; int&lt;/span&gt; a;&lt;/div&gt;&lt;div&gt;    &lt;span style=&quot;color: #569cd6&quot;&gt;&amp;nbsp; char&lt;/span&gt; b;&lt;/div&gt;&lt;div&gt;    &lt;span style=&quot;color: #569cd6&quot;&gt;&amp;nbsp; short&lt;/span&gt; c;&lt;/div&gt;&lt;div&gt;    &lt;span style=&quot;color: #569cd6&quot;&gt;&amp;nbsp; char&lt;/span&gt; d;&lt;/div&gt;&lt;div&gt;} DATA;&lt;/div&gt;&lt;/div&gt;" style="rounded=0;whiteSpace=wrap;html=1;align=left;" vertex="1" parent="1">
                    <mxGeometry x="30" y="20" width="140" height="150" as="geometry"/>
                </mxCell>
                <mxCell id="3" value="a" style="rounded=0;whiteSpace=wrap;html=1;labelBackgroundColor=none;fillColor=#6600CC;" vertex="1" parent="1">
                    <mxGeometry x="240" y="20" width="70" height="50" as="geometry"/>
                </mxCell>
                <mxCell id="4" value="a" style="rounded=0;whiteSpace=wrap;html=1;labelBackgroundColor=none;fillColor=#6600CC;" vertex="1" parent="1">
                    <mxGeometry x="310" y="20" width="70" height="50" as="geometry"/>
                </mxCell>
                <mxCell id="5" value="a" style="rounded=0;whiteSpace=wrap;html=1;labelBackgroundColor=none;fillColor=#6600CC;" vertex="1" parent="1">
                    <mxGeometry x="450" y="20" width="70" height="50" as="geometry"/>
                </mxCell>
                <mxCell id="6" value="a" style="rounded=0;whiteSpace=wrap;html=1;labelBackgroundColor=none;fillColor=#6600CC;" vertex="1" parent="1">
                    <mxGeometry x="380" y="20" width="70" height="50" as="geometry"/>
                </mxCell>
                <mxCell id="7" value="b" style="rounded=0;whiteSpace=wrap;html=1;labelBackgroundColor=none;fillColor=#009900;" vertex="1" parent="1">
                    <mxGeometry x="240" y="70" width="70" height="50" as="geometry"/>
                </mxCell>
                <mxCell id="8" value="" style="rounded=0;whiteSpace=wrap;html=1;labelBackgroundColor=none;" vertex="1" parent="1">
                    <mxGeometry x="310" y="70" width="70" height="50" as="geometry"/>
                </mxCell>
                <mxCell id="9" value="c" style="rounded=0;whiteSpace=wrap;html=1;labelBackgroundColor=none;fillColor=#990000;" vertex="1" parent="1">
                    <mxGeometry x="450" y="70" width="70" height="50" as="geometry"/>
                </mxCell>
                <mxCell id="10" value="c" style="rounded=0;whiteSpace=wrap;html=1;labelBackgroundColor=none;fillColor=#990000;" vertex="1" parent="1">
                    <mxGeometry x="380" y="70" width="70" height="50" as="geometry"/>
                </mxCell>
                <mxCell id="14" value="d" style="rounded=0;whiteSpace=wrap;html=1;labelBackgroundColor=none;fillColor=#660066;" vertex="1" parent="1">
                    <mxGeometry x="240" y="120" width="70" height="50" as="geometry"/>
                </mxCell>
                <mxCell id="15" value="" style="rounded=0;whiteSpace=wrap;html=1;labelBackgroundColor=none;" vertex="1" parent="1">
                    <mxGeometry x="310" y="120" width="70" height="50" as="geometry"/>
                </mxCell>
                <mxCell id="16" value="" style="rounded=0;whiteSpace=wrap;html=1;labelBackgroundColor=none;" vertex="1" parent="1">
                    <mxGeometry x="450" y="120" width="70" height="50" as="geometry"/>
                </mxCell>
                <mxCell id="17" value="" style="rounded=0;whiteSpace=wrap;html=1;labelBackgroundColor=none;" vertex="1" parent="1">
                    <mxGeometry x="380" y="120" width="70" height="50" as="geometry"/>
                </mxCell>
                <mxCell id="20" value="a=4x0=0开始偏移4个字节 0-3" style="text;html=1;strokeColor=none;fillColor=none;align=left;verticalAlign=middle;whiteSpace=wrap;rounded=0;labelBackgroundColor=none;fontSize=18;" vertex="1" parent="1">
                    <mxGeometry x="246" y="220" width="314" height="30" as="geometry"/>
                </mxCell>
                <mxCell id="21" value="b=1x4=4开始便宜1个字节 4" style="text;html=1;strokeColor=none;fillColor=none;align=left;verticalAlign=middle;whiteSpace=wrap;rounded=0;labelBackgroundColor=none;fontSize=18;" vertex="1" parent="1">
                    <mxGeometry x="245" y="250" width="225" height="30" as="geometry"/>
                </mxCell>
                <mxCell id="22" value="c=2x3=6开始偏移2个字节 6-7" style="text;html=1;strokeColor=none;fillColor=none;align=left;verticalAlign=middle;whiteSpace=wrap;rounded=0;labelBackgroundColor=none;fontSize=18;" vertex="1" parent="1">
                    <mxGeometry x="245" y="280" width="265" height="30" as="geometry"/>
                </mxCell>
                <mxCell id="23" value="d=1x8=8开始偏移1个字节 8" style="text;html=1;strokeColor=none;fillColor=none;align=left;verticalAlign=middle;whiteSpace=wrap;rounded=0;labelBackgroundColor=none;fontSize=18;" vertex="1" parent="1">
                    <mxGeometry x="246" y="310" width="225" height="30" as="geometry"/>
                </mxCell>
            </root>
        </mxGraphModel>
    </diagram>
</mxfile>